<svg width="6" height="6" viewBox="0 0 6 6" fill="none" xmlns="http://www.w3.org/2000/svg">
<path d="M5.02336 5.15153L4.03517 4.16335M4.03517 4.16335C4.20421 3.99431 4.33829 3.79364 4.42977 3.57279C4.52125 3.35194 4.56834 3.11523 4.56834 2.87618C4.56834 2.63713 4.52125 2.40042 4.42977 2.17957C4.33829 1.95872 4.20421 1.75804 4.03517 1.58901C3.86614 1.41998 3.66547 1.28589 3.44462 1.19441C3.22376 1.10293 2.98705 1.05585 2.74801 1.05585C2.50896 1.05585 2.27225 1.10293 2.05139 1.19441C1.83054 1.28589 1.62987 1.41998 1.46084 1.58901C1.11946 1.93039 0.927673 2.3934 0.927673 2.87618C0.927673 3.35896 1.11946 3.82197 1.46084 4.16335C1.80221 4.50473 2.26522 4.69651 2.74801 4.69651C3.23079 4.69651 3.6938 4.50473 4.03517 4.16335Z" stroke="#4B332F" stroke-width="0.585098" stroke-linecap="round" stroke-linejoin="round"/>
</svg>
